<svg xmlns="http://www.w3.org/2000/svg" viewBox="0 0 512 512"><path d="M132.893 310.534l-30.082 10.911L91.9 291.364l30.081-10.911z"/><path d="M271.552 301.072l-77.856-46.72-41.616 15.152 10.944 30.064 27.28-9.92 82.144 49.28 97.6-65.072L480 315.088V480H32V347.2l40.8-14.848-10.928-30.048L0 324.8V512h512V292.912l-146.048-54.768z"/><path d="M0 0v278.848l66.576-24.224-10.928-30.064L32 233.152V32h448v168.912l-114.048-42.768-94.4 62.928-77.856-46.72-47.84 17.392 10.944 30.064 33.504-12.16 82.144 49.28 97.6-65.072L512 247.088V0z"/><path d="M96.656 243.686L85.721 213.63l30.07-10.94 10.935 30.055z"/></svg>
