<svg xmlns="http://www.w3.org/2000/svg" viewBox="0 0 51.997 51.997"><path d="M51.911 16.242c-.759-8.354-6.672-14.415-14.072-14.415-4.93 0-9.444 2.653-11.984 6.905-2.517-4.307-6.846-6.906-11.697-6.906C6.759 1.826.845 7.887.087 16.241c-.06.369-.306 2.311.442 5.478 1.078 4.568 3.568 8.723 7.199 12.013l18.115 16.439 1.076-.959.028.009.016-.049 17.306-15.438c3.631-3.291 6.121-7.445 7.199-12.014.748-3.167.502-5.109.443-5.478zM25.52 47.178L9.072 32.25c-3.331-3.018-5.611-6.818-6.596-10.99-.708-2.997-.417-4.69-.416-4.701l.015-.101c.65-7.319 5.731-12.632 12.083-12.632 4.687 0 8.813 2.88 10.771 7.515l.065.155-8.133 8.133 14.885 1.984-11.392 10.443 8.447 5.279-3.281 9.843zm24.001-25.917c-.984 4.172-3.265 7.973-6.59 10.985L28.234 45.359l2.962-8.885-7.553-4.721 12.608-11.557-15.115-2.016 4.696-4.696.017.039.041-.096.816-.816-.332-.332.396-.939c1.927-4.564 6.271-7.514 11.069-7.514 6.351 0 11.433 5.313 12.096 12.727.003.017.294 1.711-.414 4.708z"/></svg>
