<svg xmlns="http://www.w3.org/2000/svg" width="512" height="512" viewBox="0 0 561 561"><path d="M280.5 89.25C153 89.25 43.35 168.3 0 280.5c43.35 112.2 153 191.25 280.5 191.25S517.65 392.7 561 280.5C517.65 168.3 408 89.25 280.5 89.25zm0 318.75C209.1 408 153 351.9 153 280.5S209.1 153 280.5 153 408 209.1 408 280.5 351.9 408 280.5 408zm0-204c-43.35 0-76.5 33.15-76.5 76.5s33.15 76.5 76.5 76.5 76.5-33.15 76.5-76.5-33.15-76.5-76.5-76.5z" data-original="#000000" class="active-path" data-old_color="#000000" fill="#aaa"/></svg>
